<svg xmlns="http://www.w3.org/2000/svg" xmlns:xlink="http://www.w3.org/1999/xlink" contentStyleType="text/css" data-diagram-type="DESCRIPTION" height="671px" preserveAspectRatio="none" style="width:396px;height:671px;background:#FFFFFF;" version="1.1" viewBox="0 0 396 671" width="396px" zoomAndPan="magnify"><defs/><g><!--cluster Customer VPC--><g class="cluster" data-entity="Customer VPC" data-source-line="3" data-uid="ent0002" id="cluster_Customer VPC"><polygon fill="none" points="16,16,26,6,379,6,379,529,369,539,16,539,16,16" style="stroke:#181818;stroke-width:1;"/><line style="stroke:#181818;stroke-width:1;" x1="369" x2="379" y1="16" y2="6"/><line style="stroke:#181818;stroke-width:1;" x1="16" x2="369" y1="16" y2="16"/><line style="stroke:#181818;stroke-width:1;" x1="369" x2="369" y1="16" y2="539"/><text fill="#000000" font-family="sans-serif" font-size="14" font-weight="bold" lengthAdjust="spacing" textLength="98.0205" x="144.4897" y="33.5332">Customer VPC</text></g><!--cluster ECS Fargate\nCluster--><g class="cluster" data-entity="ECS Fargate.nCluster" data-source-line="5" data-uid="ent0004" id="cluster_ECS Fargate.nCluster"><polygon fill="none" points="40,176,50,166,355,166,355,385,345,395,40,395,40,176" style="stroke:#181818;stroke-width:1;"/><line style="stroke:#181818;stroke-width:1;" x1="345" x2="355" y1="176" y2="166"/><line style="stroke:#181818;stroke-width:1;" x1="40" x2="345" y1="176" y2="176"/><line style="stroke:#181818;stroke-width:1;" x1="345" x2="345" y1="176" y2="395"/><text fill="#000000" font-family="sans-serif" font-size="14" font-weight="bold" lengthAdjust="spacing" textLength="83.248" x="151.876" y="193.5332">ECS Fargate</text><text fill="#000000" font-family="sans-serif" font-size="14" font-weight="bold" lengthAdjust="spacing" textLength="48.2344" x="169.3828" y="211.1426">Cluster</text></g><!--entity alb--><g class="entity" data-entity="alb" data-source-line="4" data-uid="ent0003" id="entity_alb"><rect fill="#F1F1F1" height="55.2188" rx="2.5" ry="2.5" style="stroke:#181818;stroke-width:0.5;" width="191.9922" x="80" y="47"/><text fill="#000000" font-family="sans-serif" font-size="14" lengthAdjust="spacing" textLength="26.4619" x="90" y="71.5332">ALB</text><text fill="#000000" font-family="sans-serif" font-size="14" lengthAdjust="spacing" textLength="171.9922" x="90" y="89.1426">(Application Load Balancer)</text></g><!--entity rds--><g class="entity" data-entity="rds" data-source-line="11" data-uid="ent0009" id="entity_rds"><path d="M120,469 C120,459 184.855,459 184.855,459 C184.855,459 249.71,459 249.71,469 L249.71,513.2188 C249.71,523.2188 184.855,523.2188 184.855,523.2188 C184.855,523.2188 120,523.2188 120,513.2188 L120,469" fill="#F1F1F1" style="stroke:#181818;stroke-width:0.5;"/><path d="M120,469 C120,479 184.855,479 184.855,479 C184.855,479 249.71,479 249.71,469" fill="none" style="stroke:#181818;stroke-width:0.5;"/><text fill="#000000" font-family="sans-serif" font-size="14" lengthAdjust="spacing" textLength="109.71" x="130" y="497.5332">RDS PostgreSQL</text><text fill="#000000" font-family="sans-serif" font-size="14" lengthAdjust="spacing" textLength="52.1104" x="130" y="515.1426">Multi-AZ</text></g><!--entity webTask--><g class="entity" data-entity="webTask" data-source-line="6" data-uid="ent0005" id="entity_webTask"><rect fill="#F1F1F1" height="37.6094" rx="2.5" ry="2.5" style="stroke:#181818;stroke-width:0.5;" width="100.9033" x="56.5" y="225"/><text fill="#000000" font-family="sans-serif" font-size="14" lengthAdjust="spacing" textLength="80.9033" x="66.5" y="249.5332">Web UI Task</text></g><!--entity apiTask--><g class="entity" data-entity="apiTask" data-source-line="7" data-uid="ent0006" id="entity_apiTask"><rect fill="#F1F1F1" height="37.6094" rx="2.5" ry="2.5" style="stroke:#181818;stroke-width:0.5;" width="135.9307" x="193" y="225"/><text fill="#000000" font-family="sans-serif" font-size="14" lengthAdjust="spacing" textLength="115.9307" x="203" y="249.5332">API Gateway Task</text></g><!--entity estTask--><g class="entity" data-entity="estTask" data-source-line="8" data-uid="ent0007" id="entity_estTask"><rect fill="#F1F1F1" height="37.6094" rx="2.5" ry="2.5" style="stroke:#181818;stroke-width:0.5;" width="113.3516" x="56.5" y="341"/><text fill="#000000" font-family="sans-serif" font-size="14" lengthAdjust="spacing" textLength="93.3516" x="66.5" y="365.5332">Estimator Task</text></g><!--entity dataTask--><g class="entity" data-entity="dataTask" data-source-line="9" data-uid="ent0008" id="entity_dataTask"><rect fill="#F1F1F1" height="37.6094" rx="2.5" ry="2.5" style="stroke:#181818;stroke-width:0.5;" width="134.3721" x="205" y="341"/><text fill="#000000" font-family="sans-serif" font-size="14" lengthAdjust="spacing" textLength="114.3721" x="215" y="365.5332">Data Service Task</text></g><!--link alb to webTask--><g class="link" data-entity-1="alb" data-entity-2="webTask" data-source-line="14" data-uid="lnk10" id="link_alb_webTask"><path d="M150.58,102.23 C143.3,111.12 136,121.46 131,132 C116.47,162.64 111.2278,196.2499 108.9578,218.9199" fill="none" id="alb-to-webTask" style="stroke:#181818;stroke-width:1;"/><polygon fill="#181818" points="108.36,224.89,113.2368,216.3333,108.8582,219.9149,105.2766,215.5362,108.36,224.89" style="stroke:#181818;stroke-width:1;"/><text fill="#000000" font-family="sans-serif" font-size="13" lengthAdjust="spacing" textLength="76.5718" x="132" y="146.4951">HTTPS (443)</text></g><!--link alb to apiTask--><g class="link" data-entity-1="alb" data-entity-2="apiTask" data-source-line="15" data-uid="lnk11" id="link_alb_apiTask"><path d="M194.85,102.22 C200.99,111.45 207.61,121.99 213,132 C230.02,163.61 243.5762,196.9161 252.1262,219.2661" fill="none" id="alb-to-apiTask" style="stroke:#181818;stroke-width:1;"/><polygon fill="#181818" points="254.27,224.87,254.7903,215.0349,252.4835,220.2,247.3184,217.8933,254.27,224.87" style="stroke:#181818;stroke-width:1;"/><text fill="#000000" font-family="sans-serif" font-size="13" lengthAdjust="spacing" textLength="76.5718" x="223" y="146.4951">HTTPS (443)</text></g><!--link apiTask to estTask--><g class="link" data-entity-1="apiTask" data-entity-2="estTask" data-source-line="16" data-uid="lnk12" id="link_apiTask_estTask"><path d="M220.63,263.03 C204.71,271.07 186.75,281.37 172,293 C154.26,306.99 141.134,321.952 130.024,336.172" fill="none" id="apiTask-to-estTask" style="stroke:#181818;stroke-width:1;"/><polygon fill="#181818" points="126.33,340.9,135.023,336.2706,129.4083,336.96,128.719,331.3453,126.33,340.9" style="stroke:#181818;stroke-width:1;"/><text fill="#000000" font-family="sans-serif" font-size="13" lengthAdjust="spacing" textLength="83.0972" x="173" y="307.4951">gRPC (50051)</text></g><!--link apiTask to dataTask--><g class="link" data-entity-1="apiTask" data-entity-2="dataTask" data-source-line="17" data-uid="lnk13" id="link_apiTask_dataTask"><path d="M262.74,263.06 C264.79,284.28 267.5935,313.3278 269.6535,334.6678" fill="none" id="apiTask-to-dataTask" style="stroke:#181818;stroke-width:1;"/><polygon fill="#181818" points="270.23,340.64,273.3467,331.2973,269.7496,335.6631,265.3837,332.066,270.23,340.64" style="stroke:#181818;stroke-width:1;"/><text fill="#000000" font-family="sans-serif" font-size="13" lengthAdjust="spacing" textLength="83.0972" x="268" y="307.4951">gRPC (50052)</text></g><!--link estTask to rds--><g class="link" data-entity-1="estTask" data-entity-2="rds" data-source-line="18" data-uid="lnk14" id="link_estTask_rds"><path d="M111.51,379.27 C111.11,393.54 112.31,413.47 120,429 C125.49,440.09 129.5858,446.0401 138.5558,454.7101" fill="none" id="estTask-to-rds" style="stroke:#181818;stroke-width:1;"/><polygon fill="#181818" points="142.87,458.88,139.1787,449.7491,139.2749,455.4051,133.6188,455.5013,142.87,458.88" style="stroke:#181818;stroke-width:1;"/><text fill="#000000" font-family="sans-serif" font-size="13" lengthAdjust="spacing" textLength="96.8145" x="121" y="425.4951">SQL/TCP (5432)</text></g><!--link dataTask to rds--><g class="link" data-entity-1="dataTask" data-entity-2="rds" data-source-line="19" data-uid="lnk15" id="link_dataTask_rds"><path d="M259.72,379.21 C245.76,399.91 226.0953,429.0659 209.2853,453.9859" fill="none" id="dataTask-to-rds" style="stroke:#181818;stroke-width:1;"/><polygon fill="#181818" points="205.93,458.96,214.2791,453.7357,208.7261,454.8149,207.6469,449.2619,205.93,458.96" style="stroke:#181818;stroke-width:1;"/><text fill="#000000" font-family="sans-serif" font-size="13" lengthAdjust="spacing" textLength="96.8145" x="237" y="425.4951">SQL/TCP (5432)</text></g><g class="legend" data-source-line="21"><rect fill="#DDDDDD" height="84.4375" rx="7.5" ry="7.5" style="stroke:#000000;stroke-width:1;" width="287.8125" x="82.1875" y="567"/><text fill="#000000" font-family="sans-serif" font-size="14" font-weight="bold" lengthAdjust="spacing" textLength="28.7793" x="91.0771" y="588.5332">Icon</text><text fill="#000000" font-family="sans-serif" font-size="14" font-weight="bold" lengthAdjust="spacing" textLength="77.0137" x="179.7803" y="588.5332">Description</text><text fill="#000000" font-family="sans-serif" font-size="14" lengthAdjust="spacing" textLength="26.4619" x="91.0771" y="606.1426">ALB</text><text fill="#000000" font-family="sans-serif" font-size="14" lengthAdjust="spacing" textLength="162.668" x="179.7803" y="606.1426">Application Load Balancer</text><text fill="#000000" font-family="sans-serif" font-size="14" lengthAdjust="spacing" textLength="80.9238" x="91.0771" y="623.752">ECS Fargate</text><text fill="#000000" font-family="sans-serif" font-size="14" lengthAdjust="spacing" textLength="181.3301" x="179.7803" y="623.752">Container hosting (managed)</text><text fill="#000000" font-family="sans-serif" font-size="14" lengthAdjust="spacing" textLength="29.5586" x="91.0771" y="641.3613">RDS</text><text fill="#000000" font-family="sans-serif" font-size="14" lengthAdjust="spacing" textLength="118.2617" x="179.7803" y="641.3613">Relational DB (HA)</text><line style="stroke:#000000;stroke-width:1;" x1="87.1875" x2="365" y1="574" y2="574"/><line style="stroke:#000000;stroke-width:1;" x1="87.1875" x2="365" y1="591.6094" y2="591.6094"/><line style="stroke:#000000;stroke-width:1;" x1="87.1875" x2="365" y1="609.2188" y2="609.2188"/><line style="stroke:#000000;stroke-width:1;" x1="87.1875" x2="365" y1="626.8281" y2="626.8281"/><line style="stroke:#000000;stroke-width:1;" x1="87.1875" x2="365" y1="644.4375" y2="644.4375"/><line style="stroke:#000000;stroke-width:1;" x1="87.1875" x2="87.1875" y1="574" y2="644.4375"/><line style="stroke:#000000;stroke-width:1;" x1="175.8906" x2="175.8906" y1="574" y2="644.4375"/><line style="stroke:#000000;stroke-width:1;" x1="365" x2="365" y1="574" y2="644.4375"/></g><!--SRC=[TP7HIyCm4CRV-rSSU-eUXbFdYw3GTLC74wgT2ZeVhktH1TEa99bZgF-xbxMpJl0XIPFlznrVx-oRK3KQh23NLQqLAPUwhIGmb3jKfQGWKBeWwCLhwtH51XwJk0SV0S1BD1ylLHZLjHGvEg4Lp3KMC4Q9AYVJVmMqW39ZjganZLEuGbEYewMA9LSaqzJYQa-KmSCC5cZVTiODPVwx4QDa1jTis-2s8x0M7J6rJbJejEbqigxJ9-WGKZBl8gSEAVYrPRvu-Mk6bgFUJr98j7MbeVHklbItQ-d487hkUPSfRF0L1FnhC1XSxfF2ETmi5aaAuMXqslzHsvH_rVRL4srE9ihx98RmR3WyEpv4zZaFc9D-iBTwXbEnp6cF5d72nEYKWH_ZlqGWgIHLW17bod4FFYzWblCi-PoGpOseTwFzz1BmoFt-tyXRwjUS-HPhvL0eLbVSKA5A22jKM5BHRtdVRDv9xagYXCaOmfl8ovoioVSD]--></g></svg>