<svg xmlns="http://www.w3.org/2000/svg" xmlns:xlink="http://www.w3.org/1999/xlink" contentStyleType="text/css" data-diagram-type="DESCRIPTION" height="716px" preserveAspectRatio="none" style="width:542px;height:716px;background:#FFFFFF;" version="1.1" viewBox="0 0 542 716" width="542px" zoomAndPan="magnify"><title>System Context Diagram: Energy Cost Saving Estimator</title><defs/><g><g class="title" data-source-line="1"><text fill="#000000" font-family="sans-serif" font-size="14" font-weight="bold" lengthAdjust="spacing" textLength="441.834" x="43.3164" y="22.9951">System Context Diagram: Energy Cost Saving Estimator</text></g><!--cluster Energy Cost Saving Estimator--><g class="cluster" data-entity="Energy Cost Saving Estimator" data-source-line="5" data-uid="ent0003" id="cluster_Energy Cost Saving Estimator"><path d="M95,196.7969 L330.6982,196.7969 A3.75,3.75 0 0 1 333.1982,199.2969 L340.1982,219.0938 L340,219.0938 A2.5,2.5 0 0 1 342.5,221.5938 L342.5,588.2969 A2.5,2.5 0 0 1 340,590.7969 L95,590.7969 A2.5,2.5 0 0 1 92.5,588.2969 L92.5,199.2969 A2.5,2.5 0 0 1 95,196.7969" fill="none" style="stroke:#000000;stroke-width:1.5;"/><line style="stroke:#000000;stroke-width:1.5;" x1="92.5" x2="340.1982" y1="219.0938" y2="219.0938"/><text fill="#000000" font-family="sans-serif" font-size="14" font-weight="bold" lengthAdjust="spacing" textLength="234.6982" x="96.5" y="211.792">Energy Cost Saving Estimator</text></g><!--entity UI--><g class="entity" data-entity="UI" data-source-line="6" data-uid="ent0004" id="entity_UI"><rect fill="#F1F1F1" height="62.5938" rx="2.5" ry="2.5" style="stroke:#181818;stroke-width:0.5;" width="91.0303" x="157" y="231.7969"/><rect fill="#F1F1F1" height="10" style="stroke:#181818;stroke-width:0.5;" width="15" x="228.0303" y="236.7969"/><rect fill="#F1F1F1" height="2" style="stroke:#181818;stroke-width:0.5;" width="4" x="226.0303" y="238.7969"/><rect fill="#F1F1F1" height="2" style="stroke:#181818;stroke-width:0.5;" width="4" x="226.0303" y="242.7969"/><text fill="#000000" font-family="sans-serif" font-size="14" lengthAdjust="spacing" textLength="50.1689" x="172" y="264.792">Web UI</text><text fill="#000000" font-family="sans-serif" font-size="14" lengthAdjust="spacing" textLength="51.0303" x="172" y="281.0889">(React)</text></g><!--entity API_GW--><g class="entity" data-entity="API_GW" data-source-line="7" data-uid="ent0005" id="entity_API_GW"><rect fill="#F1F1F1" height="62.5938" rx="2.5" ry="2.5" style="stroke:#181818;stroke-width:0.5;" width="128.4434" x="138.5" y="371.7969"/><rect fill="#F1F1F1" height="10" style="stroke:#181818;stroke-width:0.5;" width="15" x="246.9434" y="376.7969"/><rect fill="#F1F1F1" height="2" style="stroke:#181818;stroke-width:0.5;" width="4" x="244.9434" y="378.7969"/><rect fill="#F1F1F1" height="2" style="stroke:#181818;stroke-width:0.5;" width="4" x="244.9434" y="382.7969"/><text fill="#000000" font-family="sans-serif" font-size="14" lengthAdjust="spacing" textLength="88.4434" x="153.5" y="404.792">API Gateway</text><text fill="#000000" font-family="sans-serif" font-size="14" lengthAdjust="spacing" textLength="63.0957" x="153.5" y="421.0889">(Node.js)</text></g><!--entity Calc--><g class="entity" data-entity="Calc" data-source-line="8" data-uid="ent0006" id="entity_Calc"><rect fill="#F1F1F1" height="62.5938" rx="2.5" ry="2.5" style="stroke:#181818;stroke-width:0.5;" width="163.7373" x="135.5" y="511.7969"/><rect fill="#F1F1F1" height="10" style="stroke:#181818;stroke-width:0.5;" width="15" x="279.2373" y="516.7969"/><rect fill="#F1F1F1" height="2" style="stroke:#181818;stroke-width:0.5;" width="4" x="277.2373" y="518.7969"/><rect fill="#F1F1F1" height="2" style="stroke:#181818;stroke-width:0.5;" width="4" x="277.2373" y="522.7969"/><text fill="#000000" font-family="sans-serif" font-size="14" lengthAdjust="spacing" textLength="123.7373" x="150.5" y="544.792">Estimator Service</text><text fill="#000000" font-family="sans-serif" font-size="14" lengthAdjust="spacing" textLength="40.4961" x="150.5" y="561.0889">(Java)</text></g><!--entity U--><g class="entity" data-entity="U" data-source-line="3" data-uid="ent0002" id="entity_U"><ellipse cx="202.4551" cy="51.2969" fill="#F1F1F1" rx="8" ry="8" style="stroke:#181818;stroke-width:0.5;"/><path d="M202.4551,59.2969 L202.4551,86.2969 M189.4551,67.2969 L215.4551,67.2969 M202.4551,86.2969 L189.4551,101.2969 M202.4551,86.2969 L215.4551,101.2969" fill="none" style="stroke:#181818;stroke-width:0.5;"/><text fill="#000000" font-family="sans-serif" font-size="14" lengthAdjust="spacing" textLength="31.9102" x="186.5" y="115.792">User</text></g><!--entity DB--><g class="entity" data-entity="DB" data-source-line="11" data-uid="ent0007" id="entity_DB"><path d="M271,663.7969 C271,653.7969 355.6587,653.7969 355.6587,653.7969 C355.6587,653.7969 440.3174,653.7969 440.3174,663.7969 L440.3174,689.0938 C440.3174,699.0938 355.6587,699.0938 355.6587,699.0938 C355.6587,699.0938 271,699.0938 271,689.0938 L271,663.7969" fill="#F1F1F1" style="stroke:#181818;stroke-width:0.5;"/><path d="M271,663.7969 C271,673.7969 355.6587,673.7969 355.6587,673.7969 C355.6587,673.7969 440.3174,673.7969 440.3174,663.7969" fill="none" style="stroke:#181818;stroke-width:0.5;"/><text fill="#000000" font-family="sans-serif" font-size="14" lengthAdjust="spacing" textLength="149.3174" x="281" y="690.792">SQL Server Database</text></g><!--entity PriceAPI--><g class="entity" data-entity="PriceAPI" data-source-line="12" data-uid="ent0008" id="entity_PriceAPI"><rect fill="#F1F1F1" height="36.2969" rx="2.5" ry="2.5" style="stroke:#181818;stroke-width:0.5;" width="134.707" x="7" y="658.2969"/><text fill="#000000" font-family="sans-serif" font-size="14" lengthAdjust="spacing" textLength="114.707" x="17" y="681.292">Energy Price API</text></g><!--link U to UI--><g class="link" data-entity-1="U" data-entity-2="UI" data-source-line="15" data-uid="lnk9" id="link_U_UI"><path d="M202.5,119.1969 C202.5,152.4469 202.5,194.4769 202.5,225.5369" fill="none" id="U-to-UI" style="stroke:#181818;stroke-width:1;"/><polygon fill="#181818" points="202.5,231.5369,206.5,222.5369,202.5,226.5369,198.5,222.5369,202.5,231.5369" style="stroke:#181818;stroke-width:1;"/><text fill="#000000" font-family="sans-serif" font-size="13" lengthAdjust="spacing" textLength="119.7485" x="203.5" y="161.8638">inputs parameters</text><text fill="#000000" font-family="sans-serif" font-size="13" lengthAdjust="spacing" textLength="102.5337" x="212.1074" y="176.9966">receives results</text></g><!--link UI to API_GW--><g class="link" data-entity-1="UI" data-entity-2="API_GW" data-source-line="18" data-uid="lnk10" id="link_UI_API_GW"><path d="M202.5,294.9269 C202.5,317.7969 202.5,342.9069 202.5,365.7569" fill="none" id="UI-to-API_GW" style="stroke:#181818;stroke-width:1;"/><polygon fill="#181818" points="202.5,371.7569,206.5,362.7569,202.5,366.7569,198.5,362.7569,202.5,371.7569" style="stroke:#181818;stroke-width:1;"/><text fill="#000000" font-family="sans-serif" font-size="13" lengthAdjust="spacing" textLength="91.3809" x="203.5" y="337.8638">REST API calls</text></g><!--link API_GW to Calc--><g class="link" data-entity-1="API_GW" data-entity-2="Calc" data-source-line="19" data-uid="lnk11" id="link_API_GW_Calc"><path d="M205.83,434.9269 C208.31,457.7969 211.0526,482.9419 213.5326,505.7919" fill="none" id="API_GW-to-Calc" style="stroke:#181818;stroke-width:1;"/><polygon fill="#181818" points="214.18,511.7569,217.1855,502.3778,213.6405,506.7861,209.2323,503.241,214.18,511.7569" style="stroke:#181818;stroke-width:1;"/><text fill="#000000" font-family="sans-serif" font-size="13" lengthAdjust="spacing" textLength="106.8057" x="211.5" y="477.8638">Forward request</text></g><!--link API_GW to DB--><g class="link" data-entity-1="API_GW" data-entity-2="DB" data-source-line="20" data-uid="lnk12" id="link_API_GW_DB"><path d="M266.71,428.2269 C287.14,437.6969 308.96,449.9269 326.5,464.7969 C385.57,514.8769 403.94,533.0169 427.5,606.7969 C433.64,626.0269 424.1293,638.6692 406.5593,650.3292" fill="none" id="API_GW-to-DB" style="stroke:#181818;stroke-width:1;"/><polygon fill="#181818" points="401.56,653.6469,411.2707,652.0032,405.7261,650.8821,406.8472,645.3375,401.56,653.6469" style="stroke:#181818;stroke-width:1;"/><text fill="#000000" font-family="sans-serif" font-size="13" lengthAdjust="spacing" textLength="109.9668" x="424.5" y="547.8638">User profile, logs</text></g><!--link Calc to DB--><g class="link" data-entity-1="Calc" data-entity-2="DB" data-source-line="21" data-uid="lnk13" id="link_Calc_DB"><path d="M208.03,575.0969 C205.08,590.9769 204.76,609.8769 214.5,623.7969 C227.79,642.8069 243.2219,652.8489 265.0819,660.4389" fill="none" id="Calc-to-DB" style="stroke:#181818;stroke-width:1;"/><polygon fill="#181818" points="270.75,662.4069,263.5599,655.6762,266.0266,660.7669,260.9359,663.2336,270.75,662.4069" style="stroke:#181818;stroke-width:1;"/><text fill="#000000" font-family="sans-serif" font-size="13" lengthAdjust="spacing" textLength="207.7271" x="215.5" y="619.8638">Historical data, user energy use</text></g><!--link Calc to PriceAPI--><g class="link" data-entity-1="Calc" data-entity-2="PriceAPI" data-source-line="22" data-uid="lnk14" id="link_Calc_PriceAPI"><path d="M136.25,574.9669 C121.48,583.4669 107.35,593.9869 96.5,606.7969 C84.15,621.3869 79.6523,637.0813 77.2623,652.1113" fill="none" id="Calc-to-PriceAPI" style="stroke:#181818;stroke-width:1;"/><polygon fill="#181818" points="76.32,658.0369,81.6837,649.7767,77.1052,653.0989,73.783,648.5204,76.32,658.0369" style="stroke:#181818;stroke-width:1;"/><text fill="#000000" font-family="sans-serif" font-size="13" lengthAdjust="spacing" textLength="101.1563" x="97.5" y="619.8638">Get latest rates</text></g><!--SRC=[VP7FJiCm3CRlUGgh5q3QU80TaDWVHX52OwNYm13oEbC5qgJ4QSU4U7USTcoSw2Mr_VCN-qlGmH1aEmvKmSJPG9y1fXfBZzK8PfPykPCy1yYmrRQ46GTTON1UAIpaW2HdyWaWGwvKZSKxbWJ9Vvq9V2cGx-cHrf2dAtkw9D4wU-v4qhvskKXXZe6sk1FWpcte_8rxH4elyySUEuX2HhxL1GbyWotsv0HDeRwLsc30DRBCbTtVTYHvcEwJtUpJiV9K1BIbEKw_y28Oh-kGBf90gHE8EuCMjxmChfrbbSDmU27JmqZoTHCOQXGFIH1UMT4ctHA39svCuAYHndQB1WfNLOtL1KOb9H9HgLzIr9Qpx256KA0nhFRvYCJj1BXoVej-8z8V3N7uIqp7KkzchRrxrOO6O5p9gkiy0DUQnK2vtq0qQW1DxA3U0_a_uhyMIDES0XXv7tbV7uyV]--></g></svg>