<svg xmlns="http://www.w3.org/2000/svg" xmlns:xlink="http://www.w3.org/1999/xlink" contentStyleType="text/css" data-diagram-type="DESCRIPTION" height="469px" preserveAspectRatio="none" style="width:278px;height:469px;background:#FFFFFF;" version="1.1" viewBox="0 0 278 469" width="278px" zoomAndPan="magnify"><defs/><g><!--entity web--><g class="entity" data-entity="web" data-source-line="4" data-uid="ent0002" id="entity_web"><rect fill="#F1F1F1" height="55.2188" rx="2.5" ry="2.5" style="stroke:#181818;stroke-width:0.5;" width="66.6758" x="113.5" y="7"/><text fill="#000000" font-family="sans-serif" font-size="14" lengthAdjust="spacing" textLength="46.6758" x="123.5" y="31.5332">Web UI</text><text fill="#000000" font-family="sans-serif" font-size="14" lengthAdjust="spacing" textLength="45.8965" x="123.5" y="49.1426">(React)</text></g><!--entity api--><g class="entity" data-entity="api" data-source-line="5" data-uid="ent0003" id="entity_api"><rect fill="#F1F1F1" height="55.2188" rx="2.5" ry="2.5" style="stroke:#181818;stroke-width:0.5;" width="101.7031" x="96" y="140"/><text fill="#000000" font-family="sans-serif" font-size="14" lengthAdjust="spacing" textLength="81.7031" x="106" y="164.5332">API Gateway</text><text fill="#000000" font-family="sans-serif" font-size="14" lengthAdjust="spacing" textLength="56.793" x="106" y="182.1426">(Node.js)</text></g><!--entity est--><g class="entity" data-entity="est" data-source-line="6" data-uid="ent0004" id="entity_est"><rect fill="#F1F1F1" height="55.2188" rx="2.5" ry="2.5" style="stroke:#181818;stroke-width:0.5;" width="129.6963" x="7" y="273"/><text fill="#000000" font-family="sans-serif" font-size="14" lengthAdjust="spacing" textLength="109.6963" x="17" y="297.5332">Estimator Service</text><text fill="#000000" font-family="sans-serif" font-size="14" lengthAdjust="spacing" textLength="90.248" x="17" y="315.1426">(Python/Flask)</text></g><!--entity data--><g class="entity" data-entity="data" data-source-line="7" data-uid="ent0005" id="entity_data"><rect fill="#F1F1F1" height="55.2188" rx="2.5" ry="2.5" style="stroke:#181818;stroke-width:0.5;" width="100.1445" x="172" y="273"/><text fill="#000000" font-family="sans-serif" font-size="14" lengthAdjust="spacing" textLength="80.1445" x="182" y="297.5332">Data Service</text><text fill="#000000" font-family="sans-serif" font-size="14" lengthAdjust="spacing" textLength="28" x="182" y="315.1426">(Go)</text></g><!--entity db--><g class="entity" data-entity="db" data-source-line="8" data-uid="ent0006" id="entity_db"><path d="M98,416 C98,406 146.1309,406 146.1309,406 C146.1309,406 194.2617,406 194.2617,416 L194.2617,442.6094 C194.2617,452.6094 146.1309,452.6094 146.1309,452.6094 C146.1309,452.6094 98,452.6094 98,442.6094 L98,416" fill="#F1F1F1" style="stroke:#181818;stroke-width:0.5;"/><path d="M98,416 C98,426 146.1309,426 146.1309,426 C146.1309,426 194.2617,426 194.2617,416" fill="none" style="stroke:#181818;stroke-width:0.5;"/><text fill="#000000" font-family="sans-serif" font-size="14" lengthAdjust="spacing" textLength="76.2617" x="108" y="444.5332">PostgreSQL</text></g><!--link web to api--><g class="link" data-entity-1="web" data-entity-2="api" data-source-line="10" data-uid="lnk7" id="link_web_api"><path d="M147,62.01 C147,84.59 147,110.88 147,133.58" fill="none" id="web-to-api" style="stroke:#181818;stroke-width:1;"/><polygon fill="#181818" points="147,139.58,151,130.58,147,134.58,143,130.58,147,139.58" style="stroke:#181818;stroke-width:1;"/><text fill="#000000" font-family="sans-serif" font-size="13" lengthAdjust="spacing" textLength="80.8945" x="148" y="106.4951">HTTPS REST</text></g><!--link api to est--><g class="link" data-entity-1="api" data-entity-2="est" data-source-line="11" data-uid="lnk8" id="link_api_est"><path d="M118.77,195.1 C110.55,203.99 102.14,214.35 96,225 C87.45,239.83 83.0089,252.3028 79.1789,267.0428" fill="none" id="api-to-est" style="stroke:#181818;stroke-width:1;"/><polygon fill="#181818" points="77.67,272.85,83.8048,265.1452,78.9274,268.0107,76.0619,263.1333,77.67,272.85" style="stroke:#181818;stroke-width:1;"/><text fill="#000000" font-family="sans-serif" font-size="13" lengthAdjust="spacing" textLength="72.96" x="97" y="239.4951">gRPC/JSON</text></g><!--link api to data--><g class="link" data-entity-1="api" data-entity-2="data" data-source-line="12" data-uid="lnk9" id="link_api_data"><path d="M162.18,195.01 C175.1,217.59 190.6082,244.6734 203.6082,267.3734" fill="none" id="api-to-data" style="stroke:#181818;stroke-width:1;"/><polygon fill="#181818" points="206.59,272.58,205.5884,262.7822,204.1052,268.2411,198.6463,266.7579,206.59,272.58" style="stroke:#181818;stroke-width:1;"/><text fill="#000000" font-family="sans-serif" font-size="13" lengthAdjust="spacing" textLength="72.96" x="189" y="239.4951">gRPC/JSON</text></g><!--link est to db--><g class="link" data-entity-1="est" data-entity-2="db" data-source-line="13" data-uid="lnk10" id="link_est_db"><path d="M83.56,328.3 C90.14,342.75 98.87,360.71 108,376 C114.06,386.14 117.9605,391.9847 124.6805,401.0247" fill="none" id="est-to-db" style="stroke:#181818;stroke-width:1;"/><polygon fill="#181818" points="128.26,405.84,126.1009,396.2307,125.2771,401.8273,119.6805,401.0034,128.26,405.84" style="stroke:#181818;stroke-width:1;"/><text fill="#000000" font-family="sans-serif" font-size="13" lengthAdjust="spacing" textLength="55.6245" x="109" y="372.4951">SQL/TCP</text></g><!--link data to db--><g class="link" data-entity-1="data" data-entity-2="db" data-source-line="14" data-uid="lnk11" id="link_data_db"><path d="M206.07,328.12 C192.31,351.11 175.7421,378.8121 162.7021,400.5921" fill="none" id="data-to-db" style="stroke:#181818;stroke-width:1;"/><polygon fill="#181818" points="159.62,405.74,167.6751,400.0729,162.1884,401.4501,160.8112,395.9634,159.62,405.74" style="stroke:#181818;stroke-width:1;"/><text fill="#000000" font-family="sans-serif" font-size="13" lengthAdjust="spacing" textLength="55.6245" x="187" y="372.4951">SQL/TCP</text></g><!--SRC=[JO_DJiCm48JlVefLBi2XvCu12PN-8LHCd8eBbqswfA6D7Tahghmzwn2P-B27cMyquniu109FDQDjBWI11xbVpaFjkjvPiXnKEBUsHu_TlsX6BkMKIWva7rJ1OVTfRml2ckyoc1u6k58r9v_q3ZR8TCL1yBqxqlrta82GsBTpSXMuxP1bbo7_qzOal1xuv6o-lc0u_uKey3pqZ8mpVkEcBK8UnLBnL2Z_Xqoxm8qdy_wQvYQqKafsmsBn65V10spBKXieLgPKKOY6D8lH57gPlvYtVT9ZnLoFtAXNWajRNYxrk6DIa_WB]--></g></svg>